<svg xmlns="http://www.w3.org/2000/svg" version="1.1" xmlns:xlink="http://www.w3.org/1999/xlink" width="512" height="512" x="0" y="0" viewBox="0 0 512 512" style="enable-background:new 0 0 512 512" xml:space="preserve" class=""><g><path fill="#ff9200" d="M434.182 323.264c0 31.286 0 130.513-178.182 130.513S77.818 354.55 77.818 323.264 157.593 266.616 256 266.616s178.182 25.362 178.182 56.648z" opacity="1" data-original="#ff9200"></path><path fill="#ff8b00" d="M191.083 362.24c-26.642-39.293-61.932-59.686-85.106-69.551-17.821 8.82-28.16 19.314-28.16 30.576 0 31.285 0 130.513 178.183 130.513q12.138 0 23.185-.601s8.739-.508 12.89-.906 17.375-1.998 17.375-1.998l-21.997-6.195a80.618 80.618 0 0 1-14.269-5.507c-30.509-15.287-58.095-40.925-82.101-76.331z" opacity="1" data-original="#ff8b00"></path><path fill="#f9aa13" d="M256 453.777q10.616 0 20.397-.46c-35.254-15.333-67.545-43.487-95.246-84.343-27.857-41.086-65.407-60.208-88.236-68.555-9.7 6.988-15.097 14.716-15.097 22.846 0 31.285 0 130.512 178.182 130.512z" opacity="1" data-original="#f9aa13"></path><ellipse cx="256" cy="323.153" fill="#ff7000" rx="178.182" ry="56.537" opacity="1" data-original="#ff7000"></ellipse><path fill="#f9d153" d="m267.28 362.9-27.11 11.03a75.536 75.536 0 0 0-30.95 23.34l-12.95 16.47a17.568 17.568 0 0 1-29.09-2.19l-16.13-28.45a75.79 75.79 0 0 0-21.2-23.8l-24.51-17.92c38.02 13.25 92.79 21.57 153.68 21.57q4.155 0 8.26-.05z" opacity="1" data-original="#f9d153"></path><path fill="#f05d00" d="M240.17 373.934a75.475 75.475 0 0 0-10.299 5.15q12.415.578 25.342.603l34.875-14.195a10.963 10.963 0 0 0 4.585-3.512q-13.417.737-27.383.915zM94.999 337.549a10.996 10.996 0 0 0 2.296 11.332c9.995 6.195 23.493 11.726 39.656 16.335a75.64 75.64 0 0 0-7.098-5.916l-24.537-17.937q-5.375-1.874-10.29-3.879c-.009.022-.02.043-.027.065z" opacity="1" data-original="#f05d00"></path><path fill="#ff6400" d="M217.867 404.062a64.751 64.751 0 0 1 26.45-19.94l10.896-4.435q-12.908-.018-25.342-.604a75.695 75.695 0 0 0-20.653 18.182l-3.022 3.845q3.769 4.183 7.622 8.104z" opacity="1" data-original="#ff6400"></path><path fill="#ff9200" d="M182.484 420.45a17.466 17.466 0 0 1-15.3-8.9l-16.133-28.446a75.845 75.845 0 0 0-14.1-17.888c-16.163-4.609-29.66-10.14-39.656-16.334a10.992 10.992 0 0 0 1.53 1.362l24.537 17.937a64.385 64.385 0 0 1 18.122 20.35l16.133 28.446a28.564 28.564 0 0 0 47.307 3.556l8.895-11.319q-3.853-3.918-7.622-8.103l-9.922 12.626a17.41 17.41 0 0 1-13.791 6.713z" opacity="1" data-original="#ff9200"></path><path fill="#b4513a" d="M431.842 260.099c-37.306-17.696-100.783-29.347-172.824-29.347S123.5 242.402 86.193 260.098H51.106v36.754c0 36.506 93.085 66.1 207.912 66.1s207.911-29.594 207.911-66.1v-36.754z" opacity="1" data-original="#b4513a"></path><ellipse cx="259.018" cy="260.099" fill="#97422e" rx="207.912" ry="66.1" opacity="1" data-original="#97422e"></ellipse><path fill="#b44031" d="M259.018 326.198a602.271 602.271 0 0 1-89.053-6.357 337.102 337.102 0 0 1-68.644 20.086c38.13 14.096 94.631 23.024 157.697 23.024 114.826 0 207.911-29.593 207.911-66.1v-36.753c0 36.506-93.085 66.1-207.911 66.1z" opacity="1" data-original="#b44031"></path><path fill="#97260d" d="M466.93 260.099h-35.088c-30.992-14.701-80.052-25.222-137.072-28.365-40.758 44.767-85.182 71.8-124.805 88.107a602.271 602.271 0 0 0 89.053 6.357c114.826 0 207.911-29.594 207.911-66.1z" opacity="1" data-original="#97260d"></path><path fill="#f9d153" d="m437.81 280.29-22.53 18.5a94.822 94.822 0 0 0-24.89 31.42l-14.04 28.55a18.28 18.28 0 0 1-31.17 2.71l-10.57-14.48a94.335 94.335 0 0 0-44.36-33.23l-33.53-12.04c19.09 0 32.27-6.03 40.74-12.16a19.826 19.826 0 0 1 23.39.31c7.44 5.46 19.67 10.78 39.45 11.85 26.01 1.39 38.95-7.95 45.14-15.59a20.027 20.027 0 0 1 18.31-7.1c4.95.67 9.63 1.08 14.06 1.26z" opacity="1" data-original="#f9d153"></path><path fill="#6dcc82" d="M423.75 279.03a20.027 20.027 0 0 0-18.31 7.1c-6.19 7.64-19.13 16.98-45.14 15.59-19.78-1.07-32.01-6.39-39.45-11.85a19.826 19.826 0 0 0-23.39-.31c-8.47 6.13-21.65 12.16-40.74 12.16-19.43 0-33.09-6.24-41.9-12.47a20.078 20.078 0 0 0-23.55.53c-7.43 5.49-19.68 10.87-39.57 11.94-26.01 1.39-38.95-7.95-45.14-15.59a20.027 20.027 0 0 0-18.31-7.1c-91.99 12.45-94.21-63.35-58.83-66.86a62.892 62.892 0 0 0 18.57-4.74c.01 0 10.52-5.75 3.62-15.36-9.35-16.12-1.76-43.55 36.57-43.16a141.477 141.477 0 0 0-7.34 42.59c0 31.29 79.77 56.65 178.18 56.65S437.2 222.79 437.2 191.5a141.384 141.384 0 0 0-7.28-42.4c32.85 2.53 39.08 27.77 30.27 42.97-5.92 8.25.97 13.64 3.05 15.01a62.494 62.494 0 0 0 19.34 5.09c35.38 3.51 33.16 79.31-58.83 66.86z" opacity="1" data-original="#6dcc82"></path><path fill="#fff1c6" d="M340.97 238.9v9.5c0 14.3-36.69 25.9-81.95 25.9s-81.95-11.6-81.95-25.9v-9.5c0 14.31 36.69 25.91 81.95 25.91s81.95-11.6 81.95-25.91z" opacity="1" data-original="#fff1c6"></path><ellipse cx="259.018" cy="238.905" fill="#fffcf2" rx="81.948" ry="25.903" opacity="1" data-original="#fffcf2"></ellipse><path fill="#ff4a45" d="M224.06 229.64v9.5c0 14.3-31.22 25.9-69.73 25.9s-69.73-11.6-69.73-25.9v-9.5c0 14.31 31.22 25.91 69.73 25.91s69.73-11.6 69.73-25.91z" opacity="1" data-original="#ff4a45"></path><ellipse cx="154.331" cy="229.644" fill="#ff6965" rx="69.733" ry="25.903" opacity="1" data-original="#ff6965"></ellipse><path fill="#49b464" d="M442.728 224.062c-1.313-4.987-4.8-10.903-12.94-16.356a54.646 54.646 0 0 1-8.848 7.462c6.577 3.704 10.666 8.072 11.374 12.776h.119v10.96c0 14.306-31.22 25.904-69.733 25.904a169.905 169.905 0 0 1-33.304-3.14c-14.309 7.564-40.467 12.632-70.378 12.632-29.895 0-56.042-5.062-70.355-12.62a168.623 168.623 0 0 1-34.332 3.36c-38.512 0-69.733-11.597-69.733-25.903v-10.961h.118c.735-4.878 5.116-9.391 12.127-13.181a53.676 53.676 0 0 1-8.844-7.555c-8.686 5.59-12.343 11.715-13.697 16.854a10.975 10.975 0 0 0-.704 3.882v10.96c0 8.385 4.787 20.157 27.594 28.629 14.366 5.336 33.238 8.275 53.14 8.275a184.602 184.602 0 0 0 32.83-2.855c16.81 7.624 43.22 12.115 71.856 12.115 28.678 0 55.118-4.503 71.925-12.147a186.01 186.01 0 0 0 31.756 2.655c19.902 0 38.773-2.94 53.14-8.276 22.806-8.471 27.593-20.244 27.593-28.627v-10.961a10.976 10.976 0 0 0-.704-3.882z" opacity="1" data-original="#49b464"></path><path fill="#74260d" d="m290.25 313.76-33.53-12.04a82.86 82.86 0 0 1-10.99-.71 11.4 11.4 0 0 0 .06 2.02 11.005 11.005 0 0 0 7.21 9.04l33.53 12.04c1.181.424 2.346.881 3.502 1.355q10.56-.502 20.755-1.333a94.11 94.11 0 0 0-20.537-10.372zM451.5 280.11a118.314 118.314 0 0 1-13.69.18l-22.53 18.5a94.725 94.725 0 0 0-8.346 7.755 181.923 181.923 0 0 0 33.377-14.072l6.679-5.483a13.53 13.53 0 0 0 4.51-6.88z" opacity="1" data-original="#74260d"></path><path fill="#f05d00" d="M376.35 358.76a18.284 18.284 0 0 1-31.17 2.71l-2.943-4.032q-6.13.853-12.458 1.584l6.511 8.928a29.291 29.291 0 0 0 49.94-4.34l8.152-16.59q-6.745 1.842-13.979 3.498z" opacity="1" data-original="#f05d00"></path><path fill="#97260d" d="M334.61 346.99a94.434 94.434 0 0 0-23.823-22.858q-10.185.83-20.755 1.333a83.123 83.123 0 0 1 35.698 28.005l4.049 5.552q6.329-.728 12.458-1.583zM422.26 307.29l18.051-14.818a181.923 181.923 0 0 1-33.377 14.073 94.832 94.832 0 0 0-16.544 23.665l-9.987 20.308q7.227-1.655 13.98-3.497l5.877-11.961a83.308 83.308 0 0 1 22-27.77z" opacity="1" data-original="#97260d"></path><path fill="#ff4a45" d="M432.43 229.41v9.49c0 14.31-31.22 25.91-69.73 25.91s-69.73-11.6-69.73-25.91v-9.49c0 14.31 31.22 25.91 69.73 25.91s69.73-11.6 69.73-25.91z" opacity="1" data-original="#ff4a45"></path><ellipse cx="362.699" cy="229.412" fill="#ff6965" rx="69.733" ry="25.903" opacity="1" data-original="#ff6965"></ellipse><ellipse cx="362.699" cy="229.412" fill="#ff6965" rx="69.733" ry="25.903" opacity="1" data-original="#ff6965"></ellipse><path fill="#fdbb29" d="M437.2 191.5c0 31.286-79.775 56.648-178.182 56.648S80.835 222.786 80.835 191.5 98.375 47.53 259.018 47.53 437.2 160.214 437.2 191.5z" opacity="1" data-original="#fdbb29"></path><path fill="#f9a213" d="M259.018 47.53a274.494 274.494 0 0 0-55.277 5.221c-18.777 14.863-29.558 32.177-29.558 50.666 0 55.28 96.26 100.093 215.004 100.093 15.565 0 30.738-.777 45.365-2.24a20.209 20.209 0 0 0 2.648-9.77c0-31.286-17.54-143.97-178.182-143.97z" opacity="1" data-original="#f9a213"></path><path fill="#ffdc6d" d="M203.74 52.75c-18.05 14.28-28.71 30.83-29.51 48.51-17.48-2.62-32.98-7.52-45.11-13.99 17.76-15.16 41.9-27.81 74.62-34.52z" opacity="1" data-original="#ffdc6d"></path><path fill="#f9cc40" d="M305.69 52.75c0 27.98-45.64 50.67-101.95 50.67a199.507 199.507 0 0 1-29.51-2.16c.8-17.68 11.46-34.23 29.51-48.51.16-.03.33-.07.5-.11a275.106 275.106 0 0 1 54.78-5.11 285.4 285.4 0 0 1 46.62 3.61c.03.54.05 1.07.05 1.61z" opacity="1" data-original="#f9cc40"></path><path fill="#ff8e00" d="M259.018 235.969c-94.597 0-171.963-23.437-177.813-53.043-.265 3.28-.37 6.169-.37 8.574 0 31.286 79.775 56.648 178.182 56.648S437.2 222.786 437.2 191.5c0-2.405-.105-5.295-.37-8.574-5.85 29.606-83.215 53.043-177.812 53.043z" opacity="1" data-original="#ff8e00"></path><path fill="#ffffff" d="M142.038 121.15c.042-.054-.144.087-.24.15-.108.07-.256.19-.383.283-.26.19-.54.421-.815.643-.551.447-1.115.934-1.668 1.434a56.098 56.098 0 0 0-3.27 3.2 78.204 78.204 0 0 0-6.034 7.213 86.464 86.464 0 0 0-5.218 8.032c-.845 1.372-1.535 2.83-2.309 4.253-.735 1.44-1.391 2.924-2.097 4.392l-.16.33a5.498 5.498 0 0 1-10.2-4.026c.54-1.727 1.038-3.477 1.626-5.2.629-1.707 1.181-3.453 1.904-5.134l1.04-2.547 1.142-2.51c.74-1.688 1.628-3.31 2.465-4.963a92.98 92.98 0 0 1 5.905-9.537 71.837 71.837 0 0 1 3.488-4.558 57.72 57.72 0 0 1 1.943-2.23c.343-.372.677-.74 1.058-1.12.193-.194.355-.369.574-.576.23-.217.363-.361.739-.685a8.42 8.42 0 1 1 10.51 13.156z" opacity="1" data-original="#ffffff"></path><circle cx="106.233" cy="173.516" r="8.591" fill="#ffffff" opacity="1" data-original="#ffffff"></circle><g fill="#ffdd72"><ellipse cx="221.321" cy="129.635" rx="4.369" ry="13.28" transform="rotate(-60 221.325 129.641)" fill="#ffdd72" opacity="1" data-original="#ffdd72"></ellipse><ellipse cx="361.32" cy="124.87" rx="4.369" ry="13.28" transform="rotate(-60 361.326 124.878)" fill="#ffdd72" opacity="1" data-original="#ffdd72"></ellipse><ellipse cx="298.24" cy="108.495" rx="13.28" ry="4.369" transform="rotate(-50.5 298.266 108.404)" fill="#ffdd72" opacity="1" data-original="#ffdd72"></ellipse></g><ellipse cx="294.673" cy="163.279" fill="#fff1c4" rx="4.431" ry="13.47" transform="rotate(-60 294.678 163.286)" opacity="1" data-original="#fff1c4"></ellipse><ellipse cx="166.43" cy="158.211" fill="#fff1c4" rx="13.47" ry="4.431" transform="rotate(-30 166.42 158.217)" opacity="1" data-original="#fff1c4"></ellipse><ellipse cx="238.301" cy="77.005" fill="#fff1c4" rx="13.47" ry="4.431" transform="rotate(-30 238.294 77.015)" opacity="1" data-original="#fff1c4"></ellipse></g></svg>