<svg xmlns="http://www.w3.org/2000/svg" version="1.1" xmlns:xlink="http://www.w3.org/1999/xlink" width="512" height="512" x="0" y="0" viewBox="0 0 66 66" style="enable-background:new 0 0 512 512" xml:space="preserve"><g><path fill="#b4c1c7" d="M61.5 30c-.1.2-.1.5-.2.7-1.2 4.6-3.2 14.2-4 17.8-.2.8-.7 1.5-1.4 2-4.1 2.4-8.1 4.7-12.2 7.1-.6.4-1.4.8-2.2 1.1-1.4.6-2.9 1.1-3.5.8 1-7.9 1.5-16.1 1.5-24z" opacity="1" data-original="#b4c1c7"></path><path fill="#d2dcde" d="M41.2 34.9c-.6 7.5-1.4 14.8-2 22.2 0 .6-.1 1.1-.1 1.7s-.6 1-1.2.7c-.1-.1-.3-.1-.4-.2-9.3-3.7-18.7-7.4-28-11.1-.6-.3-1.1-.8-1.2-1.5L4.7 29l-.2-1 19.4 3.7z" opacity="1" data-original="#d2dcde"></path><path fill="#fff" d="M41.2 34.9c-.6 7.5-1.4 14.8-2 22.2-8.5-5.6-14.6-15-15.9-25.2l.6-.4z" opacity=".15"></path><path fill="#b4c1c7" d="M37.4 59.4c-9.3-3.7-18.7-7.4-28-11.1-.6-.3-1.1-.8-1.2-1.5L4.7 29c1.7 4.9 3.7 10.4 6.9 14.6 5 6.5 12.9 10.1 20.4 13.4 1.8.8 3.5 1.6 5.4 2.4z"></path><path fill="#144fdb" d="m63.9 26.1-.7 3.3c0 .1 0 .3-.2.3-6.7 2.1-16.7 6.1-20.4 7.3-.5.2-1 .3-1.6.3.1-1.4.3-4.3.5-7.1 0-.3 0-.6.1-.9V25.7l13.5 2.1z"></path><path fill="#0373ff" d="M41.8 25.8v3.6l-.1.9-.7 7c-.4 0-.7 0-1.1-.1-5.5-1.1-25.4-5.9-37-9.3-.1 0-.2-.1-.2-.2L2 24.4l7 1.3s10.6-1.1 16.2-2.2c.6-.1 1.2-.1 1.8 0z"></path><path fill="#144fdb" d="M41.5 30.4c-.2 2.7-.4 5.4-.5 6.8zM41.8 25.8v.4-.4z"></path><path fill="#4aa8f2" d="M63.7 26.3c-6.7 2.1-17.4 5.6-21.1 6.8-.9.3-1.8.3-2.7.2-5.5-1.1-26-5.4-37.6-8.8-.3-.1-.3-.5 0-.5 7.6-1.4 15.3-2.9 22.9-4.4.6-.1 1.2-.1 1.8 0l36.6 6.1c.4.1.4.5.1.6z"></path><path fill="#463948" d="M59.9 26.1c.2 0 .2.2 0 .3-6.3 2-14.2 4.6-17.7 5.7-.4.1-.9.2-1.3.2-.3 0-.6 0-.8-.1-2.5-.5-7.4-1.5-13.1-2.8-6.8-1.5-14.7-3.3-21-5-.1 0-.1-.2 0-.2l7.8-1.5c3.8-.7 7.7-1.5 11.6-2.2.3 0 .5-.1.8-.1h.1c.2 0 .4 0 .6.1z"></path><ellipse cx="42.2" cy="25.2" fill="#312233" rx="1.3" ry="2.2" transform="rotate(-85.12 42.25 25.217)"></ellipse><path fill="#312233" d="M27.1 29.5c-2-.4-4.1-.9-6.2-1.4-.3-.1-.5-.1-.8-.2-.2 0-.3-.1-.5-.1-1-.2-2.1-.5-3.1-.7-3.6-.9-7.2-1.7-10.4-2.6-.1 0-.1-.2 0-.2l7.8-1.5c.1 0 .2 0 .3-.1.8-.2 1.6-.3 2.5-.5.2 0 .4-.1.5-.1.2 0 .3-.1.5-.1l7.8-1.5c.3 0 .6-.1.8-.1.2 3.1.5 6.1.8 9.1z"></path><path fill="#b5001f" d="M43.2 25.5c-.4.1-1 .3-1.5.4-.3.1-.5 0-.7-.3l-9.3-15.5c-.3-.4-.5-.9-.9-1.1-.5-.3-1.2-.3-1.9-.2-6 .6-12 1.3-18 1.9-.6-.4-.7-1.4-.2-2 .4-.4 1.1-.5 1.7-.6 5.7-.5 11.4-1 17.2-1.5.8-.1 1.5-.1 2.3.1.7.2 1.4.8 1.5 1.5z"></path><path fill="#b5001f" d="M17.1 22.2c1 1.9 2 3.8 3 5.8-.2 0-.3-.1-.5-.1-1-.2-2.1-.5-3.1-.7-.8-1.4-1.6-2.9-2.4-4.3-1.8-3.4-3.7-6.7-5.5-10.1-.3-.5-.6-1-.6-1.6 0-.5.2-1.1.6-1.5.3-.4.9-.9 1.3-1.2 1.8 3.5 3.6 6.8 5.4 10.3.6 1 1.2 2.2 1.8 3.4z"></path><path fill="#f1363e" d="m43.6 25.2-.4.4-10.1-17c-.3-.5-.6-1-1-1.2-.1-.1-.3-.1-.5-.1h-1.3c-.6 0-1.3 0-2 .1H28c-1.5.1-3.1.2-4.6.3-2.2.2-4.2.4-6.1.5-1.9.2-3.9.3-6.1.5-.4 0-.6.4-.4.8 0 0 0 .1.1.1l6.6 12.2 3.3 6c-.3-.1-.5-.1-.8-.2-.2 0-.3-.1-.5-.1-1-1.8-2-3.7-3-5.5-1.5-2.7-3-5.4-4.4-8.1-.7-1.3-1.4-2.5-2.1-3.8-.3-.6-.7-1.5-.2-2 .2.2.2.1.3.1.3-.2.5-.2.8-.3 4.6-.5 8-.7 12.5-1.1 1.5-.2 3.1-.3 4.6-.3.8 0 1.6-.1 2.4-.1s1.5-.3 2.2.2c.6.3 1 1 1.3 1.6 3.1 5.3 6.6 11 9.7 16.3.3.2.2.5 0 .7z"></path><path fill="#8090a0" d="M61.3 30.7c-1.2 4.6-3.2 14.2-4 17.8-.2.8-.7 1.5-1.4 2-4.1 2.4-8.1 4.7-12.2 7.1-.6.4-1.4.8-2.2 1.1 5.3-3.1 10.1-7.9 13.3-13.2 2.9-4.8 4.6-9.3 6.5-14.8z"></path><path fill="#4aa8f2" d="M42 23v-.1z"></path><g opacity=".4"><path fill="#fff" d="M36.8 52.1c-.4.8-1.1 1.1-1.5.7-.3-.4-.2-1.2.2-1.9s.9-1 1.3-.8c.4.3.4 1.2 0 2zM36.5 43.5c-.2-3.2-1-5.2-.5-5.8.4-.6 2.6.9 2.8 5.4 0 4.8-1.9 6.5-2.3 6-.5-.3.1-2.1 0-5.6z"></path></g><path fill="#fff" d="M18 31.6c-.2-.3-.5-.6-.7-.8.3.2.5.4.9.7.1-.9.2-1.9.3-2.8h.1c.1.9.2 1.8.3 2.8.3-.2.6-.5.9-.7v.1c-.2.3-.4.5-.7.8.9.1 1.9.2 2.8.3v.1c-.9.1-1.8.2-2.8.3.2.3.5.6.7.8-.1 0-.1 0-.5-.3-.1-.1-.3-.2-.4-.4-.1.9-.2 1.9-.3 2.8h-.1c-.1-.9-.2-1.8-.3-2.8-.3.2-.6.5-.8.7l-.1-.1c.2-.3.4-.6.7-.8-.9-.1-1.9-.2-2.8-.3v-.1c.9-.1 1.8-.2 2.8-.3zM47.3 22.5c0 .4.1.9.1 1.3.1-.1.3-.2.4-.3-.1.1-.2.3-.3.4.5.1.9.1 1.4.1-.4 0-.9.1-1.4.1.1.1.2.3.3.4-.1-.1-.3-.2-.4-.3-.1.5-.1.9-.1 1.4 0-.4-.1-.9-.1-1.4-.1.1-.3.2-.4.3.1-.1.2-.3.3-.4-.5-.1-.9-.1-1.3-.1.4 0 .9-.1 1.4-.1-.1-.1-.2-.3-.3-.4.1.1.3.2.4.3-.1-.4-.1-.9 0-1.3z"></path></g></svg>